<?xml version="1.0" standalone="no"?>
<!DOCTYPE svg PUBLIC "-//W3C//DTD SVG 20010904//EN"
 "http://www.w3.org/TR/2001/REC-SVG-20010904/DTD/svg10.dtd">
<svg version="1.0" xmlns="http://www.w3.org/2000/svg"
 width="512.000000pt" height="512.000000pt" viewBox="0 0 512.000000 512.000000"
 preserveAspectRatio="xMidYMid meet">
<metadata>
Created by potrace 1.14, written by Peter Selinger 2001-2017
</metadata>
<g transform="translate(0.000000,512.000000) scale(0.100000,-0.100000)"
fill="#000000" stroke="none">
<path d="M4910 5100 c-203 -28 -203 -28 -375 -66 -458 -102 -876 -272 -1160
-472 -202 -143 -213 -153 -683 -622 l-343 -342 -57 10 c-31 6 -77 14 -102 17
-25 3 -61 10 -80 15 -19 4 -55 11 -80 14 -25 3 -56 7 -70 10 -14 3 -41 7 -60
10 -19 3 -44 7 -55 10 -11 2 -54 9 -95 16 -41 6 -95 16 -120 21 -25 5 -58 11
-75 13 -40 7 -284 46 -314 51 -21 4 -76 -47 -364 -335 -187 -187 -336 -340
-331 -341 5 0 17 -2 27 -4 9 -2 72 -13 140 -24 67 -12 133 -23 147 -26 14 -3
39 -7 55 -9 33 -5 87 -14 125 -21 14 -3 39 -7 55 -9 76 -12 102 -17 125 -21
14 -3 39 -7 55 -10 29 -4 129 -21 170 -29 11 -2 43 -7 70 -11 28 -5 52 -9 55
-10 3 0 27 -4 53 -9 l48 -7 -141 -141 c-158 -158 -208 -232 -236 -343 -4 -16
-9 -37 -11 -45 -3 -8 -6 -53 -8 -100 -6 -120 23 -248 81 -361 14 -28 24 -53
21 -55 -2 -2 -24 -6 -48 -8 -233 -24 -472 -186 -728 -494 -51 -62 -71 -92 -58
-92 1 0 51 16 111 35 60 19 111 34 112 32 2 -2 -72 -91 -135 -162 -15 -16 -51
-59 -80 -95 -30 -36 -57 -67 -60 -70 -3 -3 -26 -30 -51 -60 -25 -30 -57 -68
-71 -85 -60 -67 -128 -149 -126 -151 1 -1 27 4 57 12 30 9 62 17 70 19 8 2 58
15 110 29 52 14 96 24 98 22 2 -2 -120 -173 -270 -380 -327 -451 -307 -423
-288 -411 8 5 188 134 399 287 212 153 385 277 387 275 1 -1 -18 -76 -42 -166
-40 -145 -48 -199 -26 -165 4 6 54 51 112 100 58 48 193 163 301 255 l197 167
-35 -115 c-19 -63 -33 -117 -31 -119 8 -7 145 108 246 207 174 172 277 327
322 490 11 41 20 91 20 111 0 21 1 38 3 38 2 0 31 -14 66 -30 110 -54 203 -74
331 -75 207 0 306 49 508 251 68 69 128 125 134 127 11 2 12 -1 23 -73 11 -78
15 -103 30 -185 7 -44 16 -96 19 -115 3 -19 8 -46 11 -60 5 -23 15 -83 31
-184 3 -21 7 -48 10 -60 2 -11 15 -91 29 -176 14 -85 30 -179 36 -208 l11 -52
339 339 340 339 -12 64 c-6 34 -13 72 -14 83 -3 24 -33 199 -40 235 -3 14 -8
45 -11 70 -3 25 -7 47 -9 50 -2 3 -6 29 -10 59 -4 30 -9 63 -11 75 -3 12 -11
59 -19 106 -8 47 -17 95 -19 107 -3 11 -8 43 -12 70 -3 26 -8 57 -10 68 -26
141 -26 136 -7 157 10 12 183 186 384 388 392 393 455 465 585 662 276 417
477 1035 529 1631 l7 77 -38 -1 c-22 -1 -100 -9 -174 -19z"/>
</g>
</svg>
